<?xml version="1.0" standalone="no"?>
<!DOCTYPE svg PUBLIC "-//W3C//DTD SVG 20010904//EN"
 "http://www.w3.org/TR/2001/REC-SVG-20010904/DTD/svg10.dtd">
<svg version="1.0" xmlns="http://www.w3.org/2000/svg"
 width="500.000000pt" height="500.000000pt" viewBox="0 0 500.000000 500.000000"
 preserveAspectRatio="xMidYMid meet">

<g transform="translate(0.000000,500.000000) scale(0.100000,-0.100000)"
fill="#000000" stroke="none">
<path d="M0 2500 l0 -2500 2500 0 2500 0 0 2500 0 2500 -2500 0 -2500 0 0
-2500z m2774 2429 c216 -31 319 -62 491 -147 134 -66 437 -298 528 -405 105
-124 231 -347 244 -434 3 -21 18 -74 33 -118 15 -44 37 -123 50 -175 12 -52
27 -101 33 -109 9 -10 12 -121 13 -395 0 -210 4 -396 8 -413 4 -20 3 -47 -4
-68 -10 -30 -18 -37 -63 -50 -28 -8 -63 -15 -78 -15 -14 0 -41 -3 -58 -6 l-31
-6 1 -108 c1 -60 -4 -124 -11 -144 -6 -19 -9 -40 -5 -46 10 -17 164 -13 181 5
9 8 33 15 55 15 l39 0 0 -109 0 -108 -107 -7 c-60 -3 -255 -7 -434 -9 l-326
-2 -12 -92 c-6 -50 -11 -114 -11 -140 0 -27 -5 -54 -12 -61 -9 -9 12 -12 95
-12 92 0 110 3 126 19 26 26 115 34 304 29 131 -4 158 -7 194 -26 49 -26 114
-28 147 -6 18 11 26 12 32 3 12 -20 9 -146 -4 -162 -9 -10 -37 -15 -98 -16
-58 -1 -94 -7 -110 -17 -20 -14 -38 -14 -135 -4 -62 7 -137 9 -168 5 -31 -4
-172 -8 -314 -9 -198 -2 -262 1 -275 11 -25 19 -171 18 -178 -2 -5 -12 -27
-15 -111 -15 l-106 0 8 -143 c4 -78 9 -144 11 -146 2 -3 59 1 127 7 120 12
1350 23 1360 12 3 -3 7 -63 8 -135 l4 -129 -705 0 c-496 1 -723 4 -764 12 -38
8 -171 12 -358 12 l-298 0 0 -104 c0 -80 -4 -108 -15 -120 -8 -8 -15 -32 -15
-55 l0 -41 204 0 c161 0 210 3 232 15 25 13 142 15 857 15 l827 0 0 -109 c0
-61 -4 -113 -10 -116 -5 -3 -317 -5 -692 -4 -1014 2 -1106 2 -1565 0 l-423 -3
0 -66 c0 -37 3 -90 6 -118 l6 -51 128 -6 c130 -6 170 -16 170 -42 0 -13 36
-15 243 -15 169 0 246 3 254 11 7 7 68 15 140 20 182 11 1573 23 1666 15 l77
-8 0 -104 0 -104 -173 0 c-137 0 -177 3 -193 15 -15 11 -54 14 -180 15 -95 0
-164 -4 -170 -10 -7 -7 -306 -12 -860 -14 -475 -3 -886 -9 -934 -15 -47 -5
-264 -10 -482 -10 l-398 -1 -1 113 c-5 476 -6 2276 -2 2371 5 98 9 122 25 138
16 16 18 36 18 188 0 138 -3 170 -14 170 -34 0 -37 24 -27 187 19 298 38 423
82 560 62 189 140 336 252 473 127 155 294 314 387 370 41 24 102 62 135 84
76 51 272 139 295 133 10 -3 53 6 96 18 92 27 250 55 308 55 23 0 50 7 60 15
29 22 199 19 370 -6z"/>
<path d="M2625 4470 c3 -5 8 -10 11 -10 2 0 4 5 4 10 0 6 -5 10 -11 10 -5 0
-7 -4 -4 -10z"/>
<path d="M2230 4070 c-19 -10 -77 -52 -128 -93 -125 -101 -196 -206 -260 -387
-25 -74 -30 -105 -36 -235 -6 -123 -4 -158 8 -194 9 -24 16 -54 16 -68 0 -36
84 -207 127 -259 80 -96 127 -145 162 -166 20 -11 50 -34 66 -49 49 -46 136
-78 273 -100 217 -35 353 -15 541 79 148 74 228 146 305 276 56 94 111 206
100 206 -3 0 -26 -8 -52 -18 -26 -11 -63 -25 -82 -32 -19 -7 -93 -15 -165 -17
-155 -6 -289 17 -388 66 -237 117 -405 329 -457 577 -17 82 -19 117 -13 228 3
72 12 148 19 169 15 42 12 43 -36 17z"/>
<path d="M2916 3795 c-5 -18 -15 -27 -36 -32 -38 -7 -38 -17 -1 -33 17 -7 32
-22 35 -36 8 -32 24 -31 28 3 2 21 10 29 36 35 34 9 35 28 2 28 -11 0 -22 11
-29 30 -12 37 -27 39 -35 5z"/>
<path d="M3630 3459 c0 -5 5 -7 10 -4 6 3 10 8 10 11 0 2 -4 4 -10 4 -5 0 -10
-5 -10 -11z"/>
<path d="M1544 2585 c-4 -17 -19 -31 -43 -42 -29 -13 -32 -17 -16 -20 38 -8
65 -26 65 -45 0 -10 7 -18 15 -18 8 0 15 9 15 20 0 12 10 25 25 32 31 14 32
26 3 30 -16 2 -26 13 -33 36 -11 39 -22 41 -31 7z"/>
<path d="M2505 2050 c-4 -7 -3 -16 2 -21 12 -12 45 0 40 15 -5 15 -34 19 -42
6z"/>
<path d="M1150 1870 c0 -5 5 -10 11 -10 5 0 7 5 4 10 -3 6 -8 10 -11 10 -2 0
-4 -4 -4 -10z"/>
<path d="M1620 1110 c0 -5 5 -10 10 -10 6 0 10 5 10 10 0 6 -4 10 -10 10 -5 0
-10 -4 -10 -10z"/>
</g>
</svg>
