<?xml version="1.0" encoding="UTF-8"?>
<svg version="1.1" xmlns="http://www.w3.org/2000/svg" width="500" height="500">
<path d="M0 0 C25.3793456 0.00414117 48.58011788 5.44604043 71.46112061 16.31942749 C72.41373779 16.76802124 73.36635498 17.21661499 74.34783936 17.67880249 C85.89415419 23.54688477 96.09582801 32.25905936 106.10174561 40.40145874 C107.78570453 41.77037237 109.48549611 43.11990378 111.19549561 44.45614624 C125.96091511 56.14203765 135.80874968 70.32872895 143.96112061 87.13192749 C144.59328491 88.42030518 144.59328491 88.42030518 145.23822021 89.73471069 C147.58899651 94.74883321 149.04739802 99.41996322 149.99090576 104.87045288 C150.76553518 108.90488054 152.09903276 112.74129655 153.39862061 116.63192749 C155.58616238 123.32945563 157.43085889 129.93812561 158.82049561 136.85067749 C159.37626265 139.5473953 159.37626265 139.5473953 161.46112061 142.31942749 C161.74632263 144.43275452 161.74632263 144.43275452 161.7958374 146.90414429 C161.81893478 147.83329147 161.84203217 148.76243866 161.86582947 149.71974182 C161.88786186 151.22894951 161.88786186 151.22894951 161.91033936 152.76864624 C161.94294609 154.33676811 161.94294609 154.33676811 161.97621155 155.93656921 C162.02018668 158.15825831 162.0593731 160.3800465 162.09417725 162.60189819 C162.14769205 165.9488533 162.21815094 169.29511401 162.29119873 172.64169312 C162.49613782 183.13389872 162.45726936 193.47908943 161.65472412 203.94223022 C161.32284228 209.73153851 161.81800683 215.4303219 162.32049561 221.19638062 C162.58411318 225.01597004 162.69360353 227.6973129 161.34002686 231.31942749 C158.9373611 233.8769428 157.18568751 234.38485522 153.77362061 235.13192749 C152.77975342 235.3652478 151.78588623 235.59856812 150.76190186 235.83895874 C146.92355743 236.39767633 143.33690141 236.39921063 139.46112061 236.31942749 C139.47159424 236.90321167 139.48206787 237.48699585 139.49285889 238.08847046 C139.53500168 240.7904105 139.56062866 243.492281 139.58612061 246.19442749 C139.60287842 247.11223999 139.61963623 248.03005249 139.63690186 248.97567749 C139.68192423 255.36885449 138.89762374 261.08703988 137.46112061 267.31942749 C143.07112061 267.31942749 148.68112061 267.31942749 154.46112061 267.31942749 C154.79112061 266.32942749 155.12112061 265.33942749 155.46112061 264.31942749 C158.43112061 264.31942749 161.40112061 264.31942749 164.46112061 264.31942749 C164.46112061 271.57942749 164.46112061 278.83942749 164.46112061 286.31942749 C150.88961307 287.97528128 137.74346086 288.55039999 124.08612061 288.38192749 C120.47417064 288.34496591 116.86224976 288.31494137 113.25018311 288.29208374 C111.96355019 288.28322395 111.96355019 288.28322395 110.65092468 288.27418518 C104.76136815 288.25835102 98.96082699 288.58297015 93.09393311 289.12142944 C87.82848093 289.51741254 82.70169301 288.83772586 77.46112061 288.31942749 C77.42353638 289.4772876 77.42353638 289.4772876 77.38519287 290.65853882 C77.26928054 294.1498393 77.14653236 297.64086671 77.02362061 301.13192749 C76.9843042 302.3468689 76.94498779 303.5618103 76.90447998 304.81356812 C76.86258545 305.97694702 76.82069092 307.14032593 76.77752686 308.33895874 C76.72254028 309.94927979 76.72254028 309.94927979 76.66644287 311.59213257 C76.46112061 314.31942749 76.46112061 314.31942749 75.46112061 317.31942749 C78.48325315 317.2318732 81.50264741 317.12491686 84.52362061 317.00692749 C85.3711792 316.9843689 86.21873779 316.9618103 87.09197998 316.93856812 C88.34398193 316.88539429 88.34398193 316.88539429 89.62127686 316.83114624 C90.38061523 316.80496216 91.13995361 316.77877808 91.92230225 316.75180054 C94.65754603 316.40130726 94.65754603 316.40130726 97.68939209 314.81234741 C101.98817169 312.8791883 105.99318211 312.88638069 110.64862061 312.92098999 C111.50995605 312.91811981 112.3712915 312.91524963 113.25872803 312.91229248 C115.0706651 312.91026088 116.88262455 312.91572713 118.69451904 312.92831421 C121.45316038 312.94438113 124.21033683 312.92843498 126.96893311 312.90927124 C128.73716548 312.91125383 130.50539694 312.91509784 132.27362061 312.92098999 C133.49891479 312.91188095 133.49891479 312.91188095 134.7489624 312.90258789 C140.08369215 312.96745518 143.65963943 314.00883254 148.46112061 316.31942749 C151.33581159 316.71220856 151.33581159 316.71220856 154.08612061 316.56942749 C154.98588623 316.55395874 155.88565186 316.53848999 156.81268311 316.52255249 C159.43218131 316.32164702 161.89953926 315.89277783 164.46112061 315.31942749 C165.52497543 318.51099197 165.62790042 320.90440225 165.64862061 324.25692749 C165.66280029 325.29720093 165.67697998 326.33747437 165.69158936 327.40927124 C165.46112061 330.31942749 165.46112061 330.31942749 163.46112061 334.31942749 C157.19112061 334.31942749 150.92112061 334.31942749 144.46112061 334.31942749 C144.46112061 334.97942749 144.46112061 335.63942749 144.46112061 336.31942749 C141.21840957 337.94078301 137.6588671 337.46665579 134.09588623 337.46469116 C133.23073898 337.46804977 132.36559174 337.47140839 131.47422791 337.47486877 C128.605261 337.4843929 125.73635235 337.4863225 122.86737061 337.48739624 C120.87961808 337.49060739 118.89186579 337.49397135 116.90411377 337.4974823 C112.73447115 337.50347694 108.56484927 337.50532181 104.39520264 337.50473022 C99.04149258 337.50462849 93.68791481 337.51829113 88.33423615 337.53550243 C84.22855005 337.54659701 80.12289621 337.54865023 76.01719666 337.5481205 C74.04275557 337.54930406 72.06831373 337.55374674 70.09388733 337.56145287 C67.33794766 337.57120325 64.5822989 337.56839463 61.82635498 337.56234741 C61.00447189 337.56796692 60.18258881 337.57358643 59.33580017 337.57937622 C53.68943716 337.54774404 53.68943716 337.54774404 51.46112061 335.31942749 C48.89195403 335.01343686 46.41353676 334.80855662 43.83612061 334.69442749 C43.12971436 334.65575562 42.42330811 334.61708374 41.69549561 334.57723999 C39.95113536 334.48295025 38.2061637 334.40009858 36.46112061 334.31942749 C36.13112061 335.30942749 35.80112061 336.29942749 35.46112061 337.31942749 C28.53112061 337.31942749 21.60112061 337.31942749 14.46112061 337.31942749 C14.79112061 339.95942749 15.12112061 342.59942749 15.46112061 345.31942749 C15.53217745 347.03701653 15.5700862 348.75665646 15.55877686 350.47567749 C15.5555542 351.35223999 15.55233154 352.22880249 15.54901123 353.13192749 C15.54063232 354.01880249 15.53225342 354.90567749 15.52362061 355.81942749 C15.51910889 356.73723999 15.51459717 357.65505249 15.50994873 358.60067749 C15.49828387 360.8403314 15.48191675 363.07984294 15.46112061 365.31942749 C16.62526489 365.22093506 16.62526489 365.22093506 17.81292725 365.12045288 C29.65078434 364.22015074 41.49037315 364.01676946 53.35784912 363.81674194 C56.88779761 363.75711032 60.41761376 363.69204863 63.94744873 363.62606812 C73.45111991 363.45358876 82.95174757 363.28574269 92.45721436 363.32333374 C98.35267137 363.34230264 104.20145231 363.15002683 110.08612061 362.81942749 C119.42070363 362.36029719 128.74061871 362.20829837 138.08612061 362.19442749 C139.31798096 362.18991577 140.54984131 362.18540405 141.81903076 362.18075562 C164.35894569 362.21725258 164.35894569 362.21725258 166.46112061 364.31942749 C166.54870063 366.31907731 166.56808637 368.32178859 166.55877686 370.32333374 C166.5555542 371.53827515 166.55233154 372.75321655 166.54901123 374.00497437 C166.54063232 375.2843689 166.53225342 376.56376343 166.52362061 377.88192749 C166.51910889 379.16518921 166.51459717 380.44845093 166.50994873 381.77059937 C166.49811606 384.95358771 166.48163129 388.13648511 166.46112061 391.31942749 C149.32562574 391.36651705 132.19015157 391.40159478 115.05460644 391.42305183 C107.09511822 391.43328733 99.13567061 391.44719624 91.1762085 391.4703064 C84.22445831 391.49048075 77.27273757 391.50319973 70.32095891 391.50760448 C66.65302932 391.51017201 62.98518385 391.51603683 59.31728172 391.5308876 C42.8966606 391.59482833 26.62957896 391.19522779 10.26109314 389.76570129 C1.70666944 389.04238412 -6.83746487 389.13311624 -15.41387939 389.25692749 C-18.57790709 389.29406397 -21.74190279 389.32407344 -24.90606689 389.34677124 C-26.01857819 389.35515518 -26.01857819 389.35515518 -27.15356445 389.3637085 C-33.6643786 389.38162183 -40.05236225 388.92842364 -46.53887939 388.31942749 C-46.53887939 395.90942749 -46.53887939 403.49942749 -46.53887939 411.31942749 C-47.19887939 411.64942749 -47.85887939 411.97942749 -48.53887939 412.31942749 C-49.00411002 414.21476091 -49.00411002 414.21476091 -49.16387939 416.38192749 C-49.34950439 418.33098999 -49.34950439 418.33098999 -49.53887939 420.31942749 C-43.75449269 420.22594092 -37.97052695 420.11985768 -32.18658447 420.00204468 C-30.21855008 419.96373902 -28.25044529 419.92888894 -26.2822876 419.89755249 C-23.45480168 419.85193638 -20.62780105 419.79393651 -17.80059814 419.73348999 C-16.4785865 419.71616318 -16.4785865 419.71616318 -15.12986755 419.69848633 C-13.8989312 419.66868179 -13.8989312 419.66868179 -12.64312744 419.63827515 C-11.5605793 419.61828964 -11.5605793 419.61828964 -10.4561615 419.59790039 C-8.2128631 419.41216594 -8.2128631 419.41216594 -5.53887939 417.31942749 C-3.08394671 417.10632164 -0.73880008 417.00818753 1.71795654 417.00057983 C2.83267664 416.98551565 2.83267664 416.98551565 3.96991634 416.97014713 C6.46176858 416.93901764 8.95350828 416.92212873 11.44549561 416.90536499 C13.22250681 416.88651848 14.9995099 416.86689322 16.77650452 416.84654236 C21.58746402 416.79425695 26.39845121 416.75489923 31.20955276 416.7183342 C35.20512612 416.68651049 39.20061586 416.64742087 43.19612598 416.60856533 C82.95054729 416.22570417 122.70535207 416.21139099 162.46112061 416.31942749 C162.79112061 424.23942749 163.12112061 432.15942749 163.46112061 440.31942749 C133.60562913 441.2149633 103.7761114 441.47054512 73.90816069 441.45375299 C67.84578633 441.4511682 61.78341326 441.45358252 55.72103882 441.45513916 C45.5911023 441.45693869 35.46117318 441.45460871 25.33123779 441.44979858 C13.63746923 441.4443099 1.94371799 441.44616051 -9.75005019 441.45162499 C-19.86385516 441.45616029 -29.97765493 441.45680612 -40.09146059 441.45418632 C-46.10219188 441.45263225 -52.11291502 441.45240689 -58.12364578 441.45572281 C-63.7432506 441.45860928 -69.36283285 441.45661158 -74.98243523 441.45082855 C-77.04037755 441.44950729 -79.09832178 441.44988432 -81.15626335 441.45209122 C-83.96519362 441.45482632 -86.77405163 441.45139329 -89.58297729 441.44641113 C-90.80029146 441.44975722 -90.80029146 441.44975722 -92.04219782 441.4531709 C-92.80068093 441.45056315 -93.55916404 441.4479554 -94.34063148 441.44526863 C-94.98709401 441.44510628 -95.63355653 441.44494393 -96.29960883 441.44477665 C-99.39727681 441.2713764 -102.4675438 440.75818972 -105.53887939 440.31942749 C-105.53887939 447.90942749 -105.53887939 455.49942749 -105.53887939 463.31942749 C-103.80380127 463.3568103 -102.06872314 463.39419312 -100.28106689 463.43270874 C-97.99198317 463.49837918 -95.70292162 463.56482614 -93.41387939 463.63192749 C-92.27177002 463.65448608 -91.12966064 463.67704468 -89.95294189 463.70028687 C-79.48763469 464.03493332 -79.48763469 464.03493332 -74.53887939 467.31942749 C-74.53887939 467.97942749 -74.53887939 468.63942749 -74.53887939 469.31942749 C-67.73943099 469.20201365 -60.94014826 469.07717915 -54.14093018 468.94711304 C-51.8265087 468.90372373 -49.51205439 468.86205165 -47.1975708 468.82211304 C-43.87634366 468.76450717 -40.55528248 468.70078498 -37.23419189 468.63583374 C-36.19457306 468.61912125 -35.15495422 468.60240875 -34.08383179 468.58518982 C-33.12298676 468.5652446 -32.16214172 468.54529938 -31.17218018 468.52474976 C-29.89976974 468.50143333 -29.89976974 468.50143333 -28.60165405 468.47764587 C-26.47569635 468.44512791 -26.47569635 468.44512791 -24.53887939 467.31942749 C-16.75214026 466.33525852 -8.89537468 466.13667163 -1.05596924 466.00741577 C0.56476564 465.97668032 0.56476564 465.97668032 2.21824265 465.94532394 C5.77048849 465.88013945 9.32279833 465.82182239 12.87518311 465.76473999 C14.11402882 465.74380405 15.35287453 465.72286812 16.62926102 465.70129776 C43.80447669 465.24805992 70.97814493 465.16448904 98.15692139 465.1890564 C103.37307574 465.19372798 108.58920543 465.1937733 113.80535889 465.1890564 C120.25120275 465.18328377 126.69702631 465.18233148 133.14287186 465.18561172 C135.56305572 465.18627619 137.98324048 465.18546944 140.40342331 465.18313217 C143.72785601 465.1806095 147.05222039 465.18443314 150.37664795 465.19003296 C151.36099823 465.18800873 152.34534851 465.1859845 153.35952759 465.18389893 C154.70621521 465.18812866 154.70621521 465.18812866 156.08010864 465.19244385 C156.85873449 465.19282087 157.63736034 465.1931979 158.43958092 465.19358635 C160.46112061 465.31942749 160.46112061 465.31942749 163.46112061 466.31942749 C163.48999875 469.7985769 163.50787748 473.2776958 163.52362061 476.75692749 C163.53199951 477.75015015 163.54037842 478.7433728 163.54901123 479.76669312 C163.55384521 481.18305054 163.55384521 481.18305054 163.55877686 482.62802124 C163.56663208 483.93984375 163.56663208 483.93984375 163.574646 485.27816772 C163.46112061 487.31942749 163.46112061 487.31942749 162.46112061 488.31942749 C159.45169415 488.42257316 156.47063672 488.46016388 153.46112061 488.44442749 C152.56933105 488.4417688 151.6775415 488.43911011 150.75872803 488.43637085 C144.7549631 488.39433439 138.76803238 488.21856076 132.77362061 487.88192749 C132.04981201 487.84277222 131.32600342 487.80361694 130.58026123 487.76327515 C125.58777266 487.44607955 125.58777266 487.44607955 124.46112061 486.31942749 C122.25855753 486.21855836 120.05271004 486.18860456 117.84783936 486.18661499 C117.16421829 486.18565826 116.48059723 486.18470154 115.77626038 486.18371582 C114.31257028 486.18303242 112.84887721 486.18489775 111.38519287 486.1890564 C109.2235761 486.19424749 107.06218256 486.18920081 104.90057373 486.18270874 C97.29177342 486.18029905 89.72710905 486.38508264 82.13104248 486.82382202 C72.82355238 487.32118407 63.54845423 487.4403404 54.22943878 487.39474678 C51.49698863 487.38139658 48.76458141 487.37461472 46.03210449 487.36921692 C42.12392138 487.36096315 38.21575756 487.35024569 34.30758667 487.33746338 C24.1244133 487.30534217 13.94121464 487.29604669 3.75799561 487.29208374 C2.75108232 487.29165636 1.74416904 487.29122898 0.70674324 487.29078865 C-17.19113953 487.28699402 -35.08146859 487.43059604 -52.97637939 487.75692749 C-54.12899261 487.77666626 -55.28160583 487.79640503 -56.46914673 487.81674194 C-71.07406543 488.06367968 -71.07406543 488.06367968 -85.64019775 489.0809021 C-92.27613223 489.62695684 -98.9468397 489.71361392 -105.60137939 489.88192749 C-106.79434631 489.91319733 -106.79434631 489.91319733 -108.01141357 489.94509888 C-120.10351193 490.25670133 -132.19284803 490.42425215 -144.28887939 490.44442749 C-144.98893097 490.44701569 -145.68898254 490.44960388 -146.4102478 490.45227051 C-156.82195361 490.48287011 -167.15366039 490.02670505 -177.53887939 489.31942749 C-177.70821279 483.29138916 -177.86856425 477.26319859 -178.02105713 471.23471069 C-178.07400443 469.1894 -178.12928815 467.14414825 -178.18707275 465.09896851 C-178.46382388 455.25384799 -178.73308919 445.55059274 -177.78570557 435.73422241 C-177.26109589 428.4763436 -177.39227311 421.18654108 -177.4085083 413.91317749 C-177.41379097 411.11624527 -177.40857561 408.31947934 -177.40216064 405.52255249 C-177.39882722 395.70998244 -177.59869571 385.93088094 -178.03887939 376.12802124 C-178.58759931 363.79317962 -178.69177468 351.47704851 -178.66925049 339.13119507 C-178.66382362 335.59558952 -178.66927458 332.06010769 -178.67559814 328.52450562 C-178.67836972 318.30234373 -178.64365703 308.15286569 -177.76593018 297.96322632 C-177.48046956 294.63929832 -177.40604058 291.34234511 -177.41387939 288.00692749 C-177.41508789 287.36634399 -177.41629639 286.7257605 -177.4175415 286.06576538 C-177.45683336 280.85203863 -177.69926491 275.6540741 -177.95050049 270.4468689 C-178.40570969 260.82265627 -178.63562254 251.26394003 -178.28887939 241.63192749 C-178.26253418 240.68245239 -178.23618896 239.73297729 -178.20904541 238.75473022 C-177.97185736 233.56618294 -177.33470287 229.85136716 -174.53887939 225.31942749 C-173.87887939 225.31942749 -173.21887939 225.31942749 -172.53887939 225.31942749 C-172.53887939 214.42942749 -172.53887939 203.53942749 -172.53887939 192.31942749 C-174.18887939 191.65942749 -175.83887939 190.99942749 -177.53887939 190.31942749 C-177.85025283 177.58771349 -177.10350363 165.05449385 -175.84210205 152.38485718 C-175.6444267 150.38645803 -175.45614047 148.38710106 -175.27862549 146.3868103 C-173.34402814 124.95686383 -167.13021456 105.06458076 -156.53887939 86.31942749 C-155.99876221 85.35391968 -155.45864502 84.38841187 -154.90216064 83.39364624 C-150.39648568 75.85509564 -144.68380672 69.38601734 -138.87823486 62.83798218 C-137.25800035 61.00096821 -135.68335792 59.12689712 -134.10137939 57.25692749 C-122.33276364 43.98170151 -109.78911249 33.6069603 -94.31231689 24.89364624 C-91.79013679 23.4620426 -89.3596547 21.93870938 -86.91387939 20.38192749 C-82.21454659 17.56232781 -77.3276678 15.2262746 -72.35137939 12.94442749 C-71.59067139 12.58614868 -70.82996338 12.22786987 -70.04620361 11.85873413 C-65.28111206 9.72884322 -61.82832393 9.13426607 -56.53887939 9.31942749 C-54.39513441 8.80927045 -52.26939496 8.21958669 -50.16387939 7.56942749 C-41.83182849 5.13107406 -33.3312932 3.89752512 -24.75616455 2.62704468 C-23.70735107 2.47010132 -22.6585376 2.31315796 -21.57794189 2.15145874 C-20.63128662 2.01457642 -19.68463135 1.87769409 -18.70928955 1.73666382 C-12.61938657 0.56595019 -6.62659403 0.02251515 0 0 Z M-49.24981689 101.20614624 C-51.53887939 103.31942749 -51.53887939 103.31942749 -54.14825439 105.31552124 C-64.13331873 113.68535458 -72.88148638 134.55298038 -74.22637939 147.31942749 C-74.33728547 148.98565926 -74.44127013 150.65236393 -74.53887939 152.31942749 C-74.72301453 154.17393134 -74.91058185 156.02809725 -75.10137939 157.88192749 C-77.06251195 177.2217116 -71.79405834 196.62518535 -59.75372314 211.95223999 C-53.30748223 219.83554098 -46.48610587 226.57042788 -38.15997314 232.46395874 C-36.29356858 233.78518403 -34.46468522 235.16010119 -32.66387939 236.56942749 C-15.99781295 245.9024247 8.10553295 246.90136424 26.52362061 243.31942749 C33.64606883 241.29404127 40.20369435 237.82121555 46.67938232 234.28768921 C48.19874473 233.46201213 49.73646188 232.67025932 51.27752686 231.88583374 C67.95386283 222.86508699 78.37726954 205.79304563 84.46112061 188.31942749 C83.82045654 188.51278687 83.17979248 188.70614624 82.51971436 188.90536499 C80.71857847 189.44758473 78.91643517 189.9864658 77.11346436 190.52255249 C75.0558134 191.1407569 73.00656546 191.78696307 70.96112061 192.44442749 C51.5253346 197.30337399 27.57982544 194.82455769 10.31658936 184.54208374 C7.8986972 182.94882007 5.67971535 181.17825012 3.46112061 179.31942749 C2.55362061 178.76255249 1.64612061 178.20567749 0.71112061 177.63192749 C-16.54737965 165.35184077 -27.2425191 145.69973123 -30.92169189 125.17489624 C-32.01856313 117.804098 -31.3433318 110.68496418 -30.53887939 103.31942749 C-30.36821815 101.04889087 -30.20110475 98.77808243 -30.03887939 96.50692749 C-29.78795629 93.33006178 -29.3978723 90.39032714 -28.53887939 87.31942749 C-35.88953815 87.31942749 -44.22605777 96.47641984 -49.24981689 101.20614624 Z M37.46112061 113.31942749 C37.04862061 114.10317749 36.63612061 114.88692749 36.21112061 115.69442749 C34.20500564 118.70359993 32.86170052 119.30844427 29.46112061 120.31942749 C32.08053278 122.06570227 33.49936937 122.70665137 36.46112061 123.31942749 C36.79112061 124.63942749 37.12112061 125.95942749 37.46112061 127.31942749 C37.79112061 125.66942749 38.12112061 124.01942749 38.46112061 122.31942749 C40.44112061 121.98942749 42.42112061 121.65942749 44.46112061 121.31942749 C43.80112061 120.65942749 43.14112061 119.99942749 42.46112061 119.31942749 C41.47112061 119.31942749 40.48112061 119.31942749 39.46112061 119.31942749 C39.13112061 117.33942749 38.80112061 115.35942749 38.46112061 113.31942749 C38.13112061 113.31942749 37.80112061 113.31942749 37.46112061 113.31942749 Z M-100.53887939 235.31942749 C-100.86887939 236.96942749 -101.19887939 238.61942749 -101.53887939 240.31942749 C-103.18887939 240.64942749 -104.83887939 240.97942749 -106.53887939 241.31942749 C-105.69661012 243.57957638 -105.69661012 243.57957638 -103.10137939 244.19442749 C-100.53887939 245.31942749 -100.53887939 245.31942749 -99.22637939 247.44442749 C-98.99950439 248.06317749 -98.77262939 248.68192749 -98.53887939 249.31942749 C-98.29137939 248.53567749 -98.04387939 247.75192749 -97.78887939 246.94442749 C-96.3849884 243.99625641 -95.53212202 243.41694979 -92.53887939 242.31942749 C-94.18887939 241.98942749 -95.83887939 241.65942749 -97.53887939 241.31942749 C-98.19887939 239.33942749 -98.85887939 237.35942749 -99.53887939 235.31942749 C-99.86887939 235.31942749 -100.19887939 235.31942749 -100.53887939 235.31942749 Z M-5.53887939 290.31942749 C-5.53887939 290.97942749 -5.53887939 291.63942749 -5.53887939 292.31942749 C-4.21887939 292.31942749 -2.89887939 292.31942749 -1.53887939 292.31942749 C-1.53887939 291.65942749 -1.53887939 290.99942749 -1.53887939 290.31942749 C-2.85887939 290.31942749 -4.17887939 290.31942749 -5.53887939 290.31942749 Z " fill="#3E3A37" transform="translate(255.53887939453125,4.680572509765625)"/>
<path d="M0 0 C4.20910555 0.08116856 8.4167933 0.19399046 12.625 0.3125 C14.40970703 0.34633789 14.40970703 0.34633789 16.23046875 0.38085938 C27.12168962 0.71550583 27.12168962 0.71550583 32 4 C32 4.66 32 5.32 32 6 C48.5 5.67 65 5.34 82 5 C81.67 5.66 81.34 6.32 81 7 C73.93485984 7.24408278 66.86928018 7.45659213 59.80249023 7.64697266 C57.39764844 7.71551073 54.99300275 7.79132648 52.58862305 7.87451172 C49.1361596 7.99270288 45.68384098 8.08486318 42.23046875 8.171875 C40.61316109 8.23565338 40.61316109 8.23565338 38.96318054 8.30072021 C37.96236954 8.32104309 36.96155853 8.34136597 35.93041992 8.36230469 C34.60804573 8.4022757 34.60804573 8.4022757 33.25895691 8.4430542 C31 8 31 8 29.31347656 6.02412415 C28.8800293 5.35616318 28.44658203 4.68820221 28 4 C23.44408867 2.24816607 18.27228042 2.98761172 13.46289062 3.12695312 C8.56599719 3.20081931 4.64713432 2.56541513 0 1 C0 0.67 0 0.34 0 0 Z " fill="#2F2D2A" transform="translate(149,468)"/>
<path d="M0 0 C1.09506492 3.28519475 1.09960608 5.73663415 1.0625 9.1875 C1.05347656 10.27417969 1.04445313 11.36085938 1.03515625 12.48046875 C1.02355469 13.31191406 1.01195312 14.14335937 1 15 C0.67 15 0.34 15 0 15 C0 12.36 0 9.72 0 7 C-0.763125 7.061875 -1.52625 7.12375 -2.3125 7.1875 C-5 7 -5 7 -6.3125 5.5625 C-9.08987847 2.99085326 -12.30237036 3.3030844 -16 3 C-16 2.67 -16 2.34 -16 2 C-15.22914063 1.93941406 -14.45828125 1.87882812 -13.6640625 1.81640625 C-12.15972656 1.69072266 -12.15972656 1.69072266 -10.625 1.5625 C-9.62726563 1.48128906 -8.62953125 1.40007812 -7.6015625 1.31640625 C-4.67763349 0.96079326 -3.00138805 0 0 0 Z " fill="#32302D" transform="translate(420,320)"/>
<path d="M0 0 C0 0.33 0 0.66 0 1 C-3.96 1.66 -7.92 2.32 -12 3 C-11.67 3.99 -11.34 4.98 -11 6 C-14.375 6.625 -14.375 6.625 -18 7 C-18.66 6.34 -19.32 5.68 -20 5 C-22.57061311 4.35232207 -22.57061311 4.35232207 -25 4 C-25 3.67 -25 3.34 -25 3 C-8.29157175 -0.44419134 -8.29157175 -0.44419134 0 0 Z " fill="#322F2C" transform="translate(234,8)"/>
<path d="M0 0 C0.33 0 0.66 0 1 0 C1.19456705 1.95764383 1.38044247 3.91615321 1.5625 5.875 C1.66691406 6.96554688 1.77132812 8.05609375 1.87890625 9.1796875 C2 12 2 12 1 14 C0.90534655 15.35157981 0.86927838 16.70761148 0.8671875 18.0625 C0.86525391 19.25746094 0.86525391 19.25746094 0.86328125 20.4765625 C0.86714844 21.30929688 0.87101563 22.14203125 0.875 23 C0.87113281 23.83273438 0.86726562 24.66546875 0.86328125 25.5234375 C0.86457031 26.32007812 0.86585938 27.11671875 0.8671875 27.9375 C0.86831543 28.66839844 0.86944336 29.39929688 0.87060547 30.15234375 C0.88798205 32.09566053 0.88798205 32.09566053 2 34 C1.34 34.99 0.68 35.98 0 37 C-1.67158112 31.28716339 -2.20092823 26.65613378 -1.6875 20.75 C-1.63408447 20.0185376 -1.58066895 19.2870752 -1.52563477 18.53344727 C-1.36336617 16.35437779 -1.18359058 14.17736414 -1 12 C-0.90203125 10.75605469 -0.8040625 9.51210937 -0.703125 8.23046875 C-0.48171277 5.48560832 -0.24836025 2.74253129 0 0 Z " fill="#2F2C2A" transform="translate(225,96)"/>
<path d="M0 0 C0.66 0 1.32 0 2 0 C1.67 0.99 1.34 1.98 1 3 C-12.86 3 -26.72 3 -41 3 C-41 2.67 -41 2.34 -41 2 C-39.79351807 1.97494385 -38.58703613 1.9498877 -37.34399414 1.92407227 C-32.88424339 1.83017477 -28.42465487 1.72991167 -23.96508789 1.62768555 C-22.03185815 1.58426959 -20.09858841 1.54259958 -18.1652832 1.50268555 C-15.39261798 1.44514369 -12.62015543 1.3814038 -9.84765625 1.31640625 C-8.97786636 1.29969376 -8.10807648 1.28298126 -7.21192932 1.26576233 C-3.28884034 1.54973787 -3.28884034 1.54973787 0 0 Z " fill="#2E2D2B" transform="translate(248,423)"/>
<path d="M0 0 C0.33 0.66 0.66 1.32 1 2 C-0.07335699 4.76674582 -1.20260061 7.43194258 -2.4375 10.125 C-2.77587891 10.87910156 -3.11425781 11.63320312 -3.46289062 12.41015625 C-4.30160601 14.27659331 -5.14991393 16.1387143 -6 18 C-7.12181279 14.63456164 -6.8269172 13.32991357 -6.0625 9.9375 C-5.26774023 6.49730103 -5.26774023 6.49730103 -5 3 C-4.01 3 -3.02 3 -2 3 C-1.34 2.01 -0.68 1.02 0 0 Z " fill="#353330" transform="translate(191,123)"/>
<path d="M0 0 C3.09011944 2.58265114 4.21627918 5.48956659 5.6875 9.1875 C6.12449219 10.27417969 6.56148437 11.36085937 7.01171875 12.48046875 C7.33785156 13.31191406 7.66398438 14.14335937 8 15 C7.34 15 6.68 15 6 15 C5.34 14.34 4.68 13.68 4 13 C3.01 12.34 2.02 11.68 1 11 C1 10.01 1 9.02 1 8 C0.8503356 6.60224142 0.68279513 5.2063129 0.5 3.8125 C0.335 2.554375 0.17 1.29625 0 0 Z " fill="#312F2B" transform="translate(185,198)"/>
<path d="M0 0 C0 0.99 0 1.98 0 3 C-13.86 2.505 -13.86 2.505 -28 2 C-28 1.67 -28 1.34 -28 1 C-24.64596947 0.83051801 -21.29175736 0.66492694 -17.9375 0.5 C-16.99455078 0.45230469 -16.05160156 0.40460938 -15.08007812 0.35546875 C-10.04601557 0.10990472 -5.03997893 -0.0559221 0 0 Z " fill="#31302E" transform="translate(376,393)"/>
<path d="M0 0 C0 3 0 3 -1 5 C-0.01 5.99 0.98 6.98 2 8 C1.34 8.66 0.68 9.32 0 10 C-1.98 9.01 -3.96 8.02 -6 7 C-4.02 4.69 -2.04 2.38 0 0 Z " fill="#363330" transform="translate(325,220)"/>
<path d="M0 0 C0.28875 0.639375 0.5775 1.27875 0.875 1.9375 C1.82823451 4.15206079 1.82823451 4.15206079 4 5 C4 5.66 4 6.32 4 7 C4.66 7.33 5.32 7.66 6 8 C5.01 9.485 5.01 9.485 4 11 C3.36707617 13.11280345 3.36707617 13.11280345 3 15 C1.094753 9.89665983 -0.42589023 5.53657294 0 0 Z " fill="#33302F" transform="translate(226,134)"/>
<path d="M0 0 C0.33 0.66 0.66 1.32 1 2 C-0.98 4.97 -2.96 7.94 -5 11 C-5.33 10.34 -5.66 9.68 -6 9 C-5.67 8.01 -5.34 7.02 -5 6 C-5 5.01 -5 4.02 -5 3 C-4.34 2.67 -3.68 2.34 -3 2 C-2.34 2.33 -1.68 2.66 -1 3 C-0.67 2.01 -0.34 1.02 0 0 Z " fill="#353330" transform="translate(198,112)"/>
<path d="M0 0 C1.98 0.66 3.96 1.32 6 2 C5.01 3.485 5.01 3.485 4 5 C3.67 4.67 3.34 4.34 3 4 C2.67 7.3 2.34 10.6 2 14 C1.67 14 1.34 14 1 14 C1 10.04 1 6.08 1 2 C0.34 1.67 -0.32 1.34 -1 1 C-0.67 0.67 -0.34 0.34 0 0 Z " fill="#363533" transform="translate(82,195)"/>
<path d="M0 0 C2.60608273 2.5162178 4.89381685 5.05134359 7 8 C6.67 8.66 6.34 9.32 6 10 C4.02 9.01 2.04 8.02 0 7 C0 4.69 0 2.38 0 0 Z " fill="#343230" transform="translate(384,68)"/>
<path d="M0 0 C2.99220268 1.36370299 5.29026529 2.94908083 7.75 5.125 C8.67039062 5.93324219 8.67039062 5.93324219 9.609375 6.7578125 C10.06828125 7.16773438 10.5271875 7.57765625 11 8 C8.33333333 8 5.66666667 8 3 8 C3 6.68 3 5.36 3 4 C1.58022091 1.77256213 1.58022091 1.77256213 0 0 Z " fill="#2C2B29" transform="translate(366,50)"/>
<path d="M0 0 C2.96404505 2.80804268 5.44499019 5.18315774 7 9 C4.97954558 8.39816251 2.97888961 7.72693904 1 7 C0.67 6.34 0.34 5.68 0 5 C0.66 5 1.32 5 2 5 C1.34 3.35 0.68 1.7 0 0 Z " fill="#34312E" transform="translate(193,213)"/>
<path d="M0 0 C0 3.61537605 -0.89229241 5.11165997 -3 8 C-3.99 8 -4.98 8 -6 8 C-6 6 -6 6 -3.5625 3.4375 C-2.716875 2.633125 -1.87125 1.82875 -1 1 C-0.67 0.67 -0.34 0.34 0 0 Z " fill="#33302F" transform="translate(293,116)"/>
<path d="M0 0 C-0.33 1.32 -0.66 2.64 -1 4 C-3.31 4.33 -5.62 4.66 -8 5 C-3.16129032 0 -3.16129032 0 0 0 Z " fill="#312F2C" transform="translate(172,24)"/>
</svg>
